<?xml version="1.0" encoding="utf-8"?>
<!-- Generator: Adobe Illustrator 16.0.0, SVG Export Plug-In . SVG Version: 6.00 Build 0)  -->
<!DOCTYPE svg PUBLIC "-//W3C//DTD SVG 1.1//EN" "http://www.w3.org/Graphics/SVG/1.1/DTD/svg11.dtd">
<svg version="1.1" id="Calque_1" xmlns="http://www.w3.org/2000/svg" xmlns:xlink="http://www.w3.org/1999/xlink" x="0px" y="0px"
	 width="253px" height="130px" viewBox="0 0 253 130" enable-background="new 0 0 253 130" xml:space="preserve">
<g>
	<g>
		<path fill="#BF1924" d="M49.41,118.841h-3.987l-3.177-24.312l-3.178,24.312h-3.983l5.345-35.308h1.967
			c1.514,0,1.767,0.959,1.917,1.916L49.41,118.841z"/>
		<path fill="#BF1924" d="M82.036,114.705c0,2.424-1.915,4.389-4.338,4.49h-2.218c-2.522,0-4.54-2.019-4.54-4.49V87.668
			c0-2.469,2.018-4.486,4.54-4.486h2.218c2.423,0.051,4.338,2.068,4.338,4.486v5.396c0,1.165-0.504,1.717-0.956,1.919l-2.624,1.211
			v-7.918c0-1.061-0.857-1.917-1.966-1.917c-1.061,0-1.917,0.856-1.917,1.917v25.774c0,1.108,0.856,1.968,1.917,1.968
			c1.109,0,1.966-0.859,1.966-1.968v-4.743c0-1.159,0.504-1.714,0.958-1.965c0.304-0.151,1.716-0.757,2.622-1.162V114.705z"/>
		<path fill="#BF1924" d="M117.997,118.841h-3.987l-3.177-24.312l-3.179,24.312h-3.984l5.346-35.308h1.968
			c1.513,0,1.765,0.959,1.917,1.916L117.997,118.841z"/>
		<path fill="#BF1924" d="M146.234,83.533c2.474,0,4.441,1.967,4.494,4.441v26.427c-0.053,2.472-2.021,4.439-4.494,4.439h-7.009
			V83.533H146.234z M147.143,88.979c0-1.312-0.908-1.812-1.914-1.812h-2.371v28.093h2.371c1.006,0,1.914-0.504,1.914-1.863V88.979z"
			/>
		<path fill="#BF1924" d="M178.107,83.533c1.061,0,1.465,0.805,1.465,1.413v33.895h-2.573c-0.856,0-1.01-0.504-1.058-0.758v-34.55
			H178.107z"/>
		<path fill="#BF1924" d="M216.843,118.841h-3.985l-3.178-24.312l-3.176,24.312h-3.988l5.349-35.308h1.97
			c1.509,0,1.76,0.959,1.912,1.916L216.843,118.841z"/>
	</g>
	<g>
		<path fill="#FFFFFF" d="M2,100h3.149c0.437,0,0.86,0.045,1.268,0.136c0.407,0.088,0.771,0.237,1.09,0.448
			c0.317,0.208,0.572,0.482,0.76,0.818c0.19,0.339,0.283,0.757,0.283,1.256c0,0.575-0.161,1.071-0.484,1.482
			c-0.323,0.413-0.783,0.69-1.381,0.829v0.029c0.747,0.061,1.331,0.322,1.754,0.783c0.423,0.464,0.634,1.083,0.634,1.858
			c0,0.168-0.042,0.419-0.126,0.746c-0.084,0.328-0.261,0.653-0.53,0.979c-0.269,0.323-0.656,0.603-1.165,0.843
			c-0.507,0.237-1.184,0.357-2.029,0.357H2V100z M3.075,104.628h2.163c0.259,0,0.515-0.032,0.769-0.099
			c0.253-0.063,0.483-0.171,0.687-0.319c0.203-0.149,0.371-0.342,0.499-0.576c0.129-0.232,0.194-0.518,0.194-0.855
			c0-0.112-0.022-0.265-0.066-0.464c-0.045-0.2-0.146-0.4-0.299-0.598c-0.154-0.2-0.381-0.37-0.679-0.515
			c-0.298-0.144-0.701-0.216-1.208-0.216h-2.06V104.628z M3.075,109.581h2.06c0.386,0,0.75-0.037,1.089-0.119
			c0.338-0.08,0.631-0.203,0.88-0.365c0.249-0.163,0.446-0.371,0.59-0.619c0.144-0.25,0.216-0.546,0.216-0.896
			c0-0.698-0.223-1.216-0.67-1.552c-0.449-0.339-1.105-0.509-1.97-0.509H3.075V109.581z"/>
		<path fill="#FFFFFF" d="M19.938,109.581h5.655v0.984h-6.73V100h6.551v0.986h-5.476v3.597h5.118v0.983h-5.118V109.581z"/>
		<path fill="#FFFFFF" d="M38.563,110.565h-1.075v-4.551L33.535,100h1.342l3.148,4.985L41.174,100h1.344l-3.955,6.015V110.565z"/>
		<path fill="#FFFFFF" d="M61.5,105.284c0,0.805-0.139,1.546-0.418,2.224c-0.279,0.677-0.664,1.261-1.156,1.751
			c-0.492,0.493-1.075,0.88-1.746,1.16c-0.671,0.277-1.4,0.415-2.187,0.415s-1.515-0.138-2.186-0.415
			c-0.671-0.28-1.253-0.667-1.746-1.16c-0.493-0.49-0.878-1.074-1.156-1.751c-0.279-0.678-0.418-1.419-0.418-2.224
			c0-0.806,0.14-1.549,0.418-2.227c0.278-0.675,0.663-1.261,1.156-1.751c0.493-0.491,1.075-0.878,1.746-1.157
			c0.671-0.277,1.4-0.416,2.186-0.416s1.515,0.139,2.187,0.416c0.671,0.279,1.254,0.666,1.746,1.157
			c0.492,0.49,0.877,1.076,1.156,1.751C61.361,103.735,61.5,104.479,61.5,105.284z M60.337,105.284c0-0.608-0.1-1.187-0.299-1.738
			c-0.199-0.552-0.484-1.037-0.858-1.456c-0.373-0.418-0.828-0.752-1.365-1c-0.538-0.247-1.145-0.373-1.821-0.373
			s-1.284,0.126-1.821,0.373c-0.537,0.248-0.992,0.582-1.365,1c-0.373,0.419-0.66,0.904-0.858,1.456
			c-0.2,0.552-0.299,1.13-0.299,1.738c0,0.604,0.099,1.187,0.299,1.738c0.198,0.554,0.486,1.037,0.858,1.455
			c0.373,0.416,0.828,0.752,1.365,1s1.144,0.373,1.821,0.373s1.283-0.125,1.821-0.373c0.537-0.248,0.992-0.584,1.365-1
			c0.374-0.418,0.66-0.901,0.858-1.455C60.237,106.471,60.337,105.889,60.337,105.284z"/>
		<path fill="#FFFFFF" d="M78.751,108.952h0.03V100h1.075v10.565h-1.344l-6.298-9.043h-0.028v9.043h-1.075V100h1.343L78.751,108.952
			z"/>
		<path fill="#FFFFFF" d="M90.035,100h3.506c0.656,0,1.316,0.109,1.978,0.328s1.259,0.549,1.791,0.994
			c0.532,0.442,0.962,0.994,1.29,1.655c0.329,0.661,0.493,1.432,0.493,2.307c0,0.885-0.164,1.655-0.493,2.312
			c-0.328,0.655-0.758,1.207-1.29,1.649c-0.532,0.443-1.13,0.773-1.791,0.992s-1.321,0.328-1.978,0.328h-3.506V100z M91.109,109.581
			h2.088c0.806,0,1.505-0.122,2.097-0.365c0.593-0.245,1.084-0.567,1.478-0.97c0.394-0.403,0.684-0.861,0.873-1.373
			c0.189-0.515,0.284-1.043,0.284-1.589c0-0.55-0.095-1.077-0.284-1.589c-0.189-0.515-0.479-0.974-0.873-1.373
			c-0.393-0.405-0.885-0.729-1.478-0.971c-0.592-0.242-1.291-0.365-2.097-0.365h-2.088V109.581z"/>
		<path fill="#FFFFFF" d="M123.703,110.565h-1.075v-9.579h-3.537V100h8.149v0.986h-3.537V110.565z"/>
		<path fill="#FFFFFF" d="M136.343,100h1.075v4.583h5.76V100h1.074v10.565h-1.074v-4.999h-5.76v4.999h-1.075V100z"/>
		<path fill="#FFFFFF" d="M155.653,109.581h5.657v0.984h-6.732V100h6.552v0.986h-5.477v3.597h5.118v0.983h-5.118V109.581z"/>
		<path fill="#FFFFFF" d="M183.577,109.581h4.924v0.984h-5.998V100h1.074V109.581z"/>
		<path fill="#FFFFFF" d="M198.501,110.565h-1.074V100h1.074V110.565z"/>
		<path fill="#FFFFFF" d="M216.467,108.952h0.029V100h1.075v10.565h-1.342l-6.297-9.043H209.9v9.043h-1.074V100h1.344
			L216.467,108.952z"/>
		<path fill="#FFFFFF" d="M228.974,109.581h5.654v0.984h-6.729V100h6.551v0.986h-5.476v3.597h5.118v0.983h-5.118V109.581z"/>
		<path fill="#FFFFFF" d="M249.211,101.746c-0.47-0.686-1.149-1.029-2.048-1.029c-0.277,0-0.552,0.037-0.818,0.112
			c-0.27,0.074-0.509,0.189-0.723,0.341c-0.216,0.157-0.387,0.354-0.517,0.601c-0.128,0.242-0.195,0.527-0.195,0.855
			c0,0.478,0.137,0.851,0.405,1.111c0.267,0.265,0.6,0.482,1,0.65c0.397,0.168,0.832,0.32,1.304,0.454
			c0.475,0.136,0.909,0.314,1.307,0.538c0.396,0.224,0.732,0.52,0.999,0.891c0.27,0.368,0.403,0.869,0.403,1.506
			c0,0.475-0.102,0.906-0.305,1.29c-0.205,0.385-0.472,0.704-0.808,0.963c-0.33,0.259-0.706,0.459-1.119,0.598
			c-0.411,0.139-0.827,0.207-1.245,0.207c-0.648,0-1.262-0.119-1.843-0.365c-0.584-0.242-1.079-0.645-1.484-1.202l0.983-0.701
			c0.229,0.387,0.547,0.699,0.952,0.934c0.407,0.234,0.888,0.352,1.444,0.352c0.267,0,0.536-0.043,0.803-0.128
			c0.27-0.083,0.509-0.211,0.723-0.373c0.213-0.165,0.389-0.365,0.527-0.603c0.139-0.24,0.208-0.515,0.208-0.821
			c0-0.368-0.077-0.675-0.231-0.92c-0.155-0.242-0.357-0.447-0.613-0.61c-0.253-0.165-0.541-0.301-0.864-0.41
			c-0.322-0.109-0.655-0.219-1.002-0.328c-0.341-0.109-0.675-0.234-1-0.373c-0.322-0.139-0.607-0.314-0.863-0.531
			c-0.254-0.213-0.459-0.482-0.613-0.805c-0.152-0.325-0.232-0.728-0.232-1.216c0-0.507,0.099-0.949,0.294-1.33
			c0.194-0.376,0.453-0.688,0.775-0.938c0.325-0.248,0.688-0.435,1.096-0.555c0.408-0.117,0.829-0.176,1.253-0.176
			c0.6,0,1.142,0.093,1.629,0.282c0.488,0.189,0.938,0.522,1.357,1L249.211,101.746z"/>
	</g>
	<circle fill="#BF1924" cx="127.24" cy="35.695" r="28.696"/>
	<polyline fill="none" stroke="#FFFFFF" stroke-linecap="round" stroke-linejoin="round" stroke-miterlimit="10" points="
		114.509,55.457 134.113,15.934 134.113,28.705 119.962,55.457 125.807,55.457 134.113,40.645 134.113,55.457 	"/>
</g>
</svg>
